<?xml version="1.0"?>
<svg version="1.1" xmlns="http://www.w3.org/2000/svg" width="400px" height="200px" style="border: dashed 2px #aaa"><path fill="#ee6c4d" d="M51.19140625,92.75390625q0-0.3125,0.224609375-0.517578125t0.52734375-0.322265625t0.6640625-0.15625t0.634765625-0.0390625q0.56640625,0,1.201171875,0.15625t0.947265625,0.68359375q0.56640625,0.95703125,0.830078125,2.275390625t0.498046875,2.529296875q0.3515625,1.6796875,0.8984375,3.515625t1.142578125,3.740234375t1.220703125,3.740234375t1.09375,3.4375q0.56640625-2.36328125,1.044921875-4.84375t0.91796875-4.9609375t0.91796875-4.9609375t1.044921875-4.86328125q0.1171875-0.56640625,0.17578125-1.42578125t0.244140625-1.66015625t0.537109375-1.376953125t1.07421875-0.576171875q0.76171875,0,1.025390625,0.419921875t0.263671875,1.220703125q-0.1953125,2.20703125-0.634765625,4.375t-0.810546875,4.3359375q-0.52734375,2.67578125-1.142578125,5.361328125t-1.15234375,5.380859375t-0.91796875,5.400390625t-0.458984375,5.419921875q0.0390625,0.1171875,0.1171875,0.2734375t0.078125,0.234375q0,0.234375-0.21484375,0.439453125t-0.537109375,0.3515625t-0.703125,0.224609375t-0.712890625,0.078125q-0.3125,0-0.712890625-0.0390625t-0.80078125-0.146484375t-0.703125-0.283203125t-0.380859375-0.44921875q-0.3125-0.91796875-0.576171875-1.787109375t-0.498046875-1.787109375q-1.11328125-4.00390625-2.333984375-7.861328125t-2.255859375-7.841796875q-0.48828125-1.796875-0.732421875-3.525390625t-0.791015625-3.408203125q0.078125,0.15625,0.078125,0.25390625q-0.078125-0.2734375-0.15625-0.517578125t-0.17578125-0.537109375q0,0.078125,0.01953125,0.09765625t0.01953125,0.05859375q0-0.0390625-0.01953125-0.05859375t-0.01953125-0.05859375z M72.3177734375,106.19140625q0-1.15234375,0.126953125-2.79296875t0.46875-3.41796875t0.91796875-3.53515625t1.474609375-3.10546875t2.1484375-2.12890625q1.03515625-0.64453125,2.3828125-0.64453125q0.2734375,0,0.56640625,0.0390625q3.3984375,0.3125,5.224609375,1.552734375t2.666015625,3.14453125t0.9765625,4.3359375t0.13671875,5.126953125q0,2.16796875-0.400390625,4.716796875t-1.416015625,4.755859375t-2.802734375,3.681640625t-4.541015625,1.474609375q-1.6796875,0-2.939453125-0.615234375t-2.138671875-1.640625t-1.4453125-2.3828125t-0.859375-2.8125t-0.419921875-2.939453125t-0.126953125-2.8125z M76.2826171875,105.3125q0,0.83984375,0.01953125,2.060546875t0.166015625,2.568359375t0.380859375,2.685546875t0.693359375,2.431640625t1.162109375,1.796875t1.69921875,0.7421875l0.09765625,0q0.8984375,0,1.6015625-0.68359375q0.7421875-0.72265625,1.318359375-1.73828125t0.99609375-2.138671875t0.751953125-1.923828125l-0.078125,0.17578125q0.56640625-1.796875,0.76171875-3.681640625t0.1953125-3.720703125q0-0.87890625-0.1171875-2.119140625t-0.380859375-2.587890625t-0.68359375-2.666015625t-1.064453125-2.294921875t-1.50390625-1.484375q-0.625-0.37109375-1.38671875-0.390625q-0.29296875,0-0.5859375,0.05859375q-0.99609375,0.1953125-1.69921875,0.9765625t-1.142578125,1.923828125t-0.673828125,2.5t-0.361328125,2.734375t-0.146484375,2.63671875t-0.01953125,2.138671875z M85.0912109375,111.328125l0-0.0390625l0,0.0390625z M93.483203125,101.23046875q0-0.76171875,0.048828125-2.236328125t0.146484375-3.076171875t0.25390625-2.998046875t0.44921875-2.001953125q0.15625-0.3125,0.478515625-0.419921875t0.634765625-0.107421875q0.1953125,0,0.654296875,0.107421875t0.458984375,0.419921875q0,0.48828125-0.1171875,1.845703125t-0.21484375,3.115234375t-0.13671875,3.65234375l0,0.83984375q0,1.42578125,0.09765625,2.67578125q0.13671875,1.6015625,0.517578125,2.63671875t1.142578125,1.03515625q1.03515625,0,1.93359375-0.615234375t1.640625-1.6015625t1.337890625-2.20703125t1.015625-2.40234375t0.703125-2.177734375t0.400390625-1.5625q0.1171875-0.64453125,0.205078125-1.71875t0.283203125-2.109375t0.693359375-1.796875t1.455078125-0.76171875q0.56640625,0,1.083984375,0.1953125t0.673828125,0.83984375q-0.3125,1.19140625-0.52734375,3.310546875t-0.341796875,4.443359375t-0.185546875,4.501953125t-0.05859375,3.544921875q0,1.5234375,0.0390625,3.720703125t0.13671875,4.541015625t0.224609375,4.560546875t0.283203125,3.701171875q0.15625,0.3125,0.15625,0.72265625q0,0.48828125-0.1953125,0.76171875t-0.537109375,0.41015625t-0.7421875,0.17578125t-0.771484375,0.0390625q-0.56640625,0-1.259765625-0.1953125t-0.849609375-0.80078125q-0.1953125-0.72265625-0.322265625-1.904296875t-0.185546875-2.578125t-0.09765625-2.919921875t-0.0390625-2.919921875t0.01953125-2.59765625t0.01953125-1.962890625q0-1.484375,0.05859375-2.919921875t0.13671875-2.919921875q-0.48828125,0.99609375-1.142578125,2.021484375t-1.494140625,1.865234375t-1.875,1.376953125t-2.24609375,0.537109375q-1.5625,0-2.3828125-0.83984375t-1.19140625-2.080078125t-0.419921875-2.63671875t-0.048828125-2.529296875z M113.2033203125,119.55078125q0-0.1171875,0.078125-0.830078125t0.205078125-1.73828125t0.283203125-2.20703125t0.2734375-2.236328125t0.205078125-1.85546875t0.087890625-1.07421875q-0.15625-0.078125-0.380859375-0.224609375t-0.224609375-0.341796875q0-0.2734375,0.263671875-0.439453125t0.458984375-0.244140625q0.078125-0.99609375,0.1953125-2.7734375t0.361328125-3.837890625t0.68359375-4.1796875t1.162109375-3.84765625t1.73828125-2.822265625t2.5-1.09375t2.4609375,0.9375t1.591796875,2.44140625t0.9375,3.33984375t0.48828125,3.65234375t0.205078125,3.3984375t0.078125,2.5390625q0.0390625,0.60546875,0.29296875,0.810546875t0.556640625,0.283203125t0.546875,0.17578125t0.244140625,0.48828125q0,0.44921875-0.546875,0.625t-0.859375,0.21484375q0.1953125,2.44140625,0.537109375,4.8046875t0.908203125,4.765625q0.078125,0.44921875,0.21484375,0.908203125t0.13671875,0.888671875q0,0.3125-0.21484375,0.517578125t-0.556640625,0.322265625t-0.68359375,0.15625t-0.576171875,0.0390625q-0.87890625,0-1.484375-0.33203125t-0.80078125-1.26953125q-0.52734375-2.51953125-1.03515625-5.29296875q-0.4296875-2.40234375-0.4296875-4.66796875q0-0.3515625,0.01953125-0.703125q-1.640625,0-3.30078125,0.078125t-3.18359375,0.5859375q-0.0390625,0.52734375-0.1953125,1.9921875t-0.3515625,3.14453125t-0.400390625,3.212890625t-0.244140625,2.177734375q-0.0390625,0.2734375-0.400390625,0.517578125t-0.78125,0.263671875t-0.7421875-0.263671875t-0.322265625-1.005859375z M116.8556640625,107.71484375q1.5234375-0.3515625,3.056640625-0.41015625t3.095703125-0.13671875q-0.078125-0.48828125-0.0390625-1.005859375t0.0390625-1.044921875q0-1.15234375-0.05859375-2.67578125t-0.17578125-3.0859375t-0.302734375-3.076171875t-0.419921875-2.6953125t-0.498046875-1.884765625t-0.576171875-0.703125q-0.60546875,0.0390625-1.142578125,1.044921875t-0.9765625,2.55859375t-0.80078125,3.4765625t-0.60546875,3.759765625t-0.400390625,3.41796875t-0.1953125,2.4609375z"/><path fill="#" d=""/></svg>
